{
	"asset":{
		"generator":"Khronos glTF Blender I/O v3.6.27",
		"version":"2.0"
	},
	"extensionsUsed":[
		"KHR_materials_specular",
		"KHR_materials_ior"
	],
	"scene":0,
	"scenes":[
		{
			"name":"Scene",
			"nodes":[
				0,
				1,
				2,
				3
			]
		}
	],
	"nodes":[
		{
			"mesh":0,
			"name":"Torus",
			"scale":[
				1,
				6.114981174468994,
				1
			]
		},
		{
			"mesh":1,
			"name":"Cylinder",
			"scale":[
				1,
				0.11751747131347656,
				1
			],
			"translation":[
				0,
				-1.2736928462982178,
				0
			]
		},
		{
			"mesh":2,
			"name":"Cylinder.001",
			"scale":[
				1.1749999523162842,
				0.11751747131347656,
				1.1749999523162842
			],
			"translation":[
				0,
				1.0043491125106812,
				0
			]
		},
		{
			"mesh":3,
			"name":"Cylinder.002",
			"scale":[
				1.0499999523162842,
				0.11751747131347656,
				1.0499999523162842
			],
			"translation":[
				0,
				1.3474705219268799,
				0
			]
		}
	],
	"materials":[
		{
			"doubleSided":true,
			"name":"Material",
			"pbrMetallicRoughness":{
				"baseColorFactor":[
					0.7949250340461731,
					0.8000000715255737,
					0.7738745808601379,
					1
				],
				"metallicFactor":0,
				"roughnessFactor":0
			}
		},
		{
			"doubleSided":true,
			"name":"Material.002",
			"pbrMetallicRoughness":{
				"baseColorFactor":[
					0.8000000715255737,
					0.5258665084838867,
					0.276272177696228,
					1
				],
				"metallicFactor":0,
				"roughnessFactor":0.5
			}
		},
		{
			"doubleSided":true,
			"extensions":{
				"KHR_materials_specular":{
					"specularColorFactor":[
						0.2982839575467516,
						0.2982839575467516,
						0.2982839575467516
					]
				},
				"KHR_materials_ior":{
					"ior":1.4500000476837158
				}
			},
			"name":"Material.001",
			"pbrMetallicRoughness":{
				"baseColorFactor":[
					0.7928175926208496,
					0.8000000715255737,
					0.7379364967346191,
					1
				],
				"metallicFactor":0,
				"roughnessFactor":0
			}
		}
	],
	"meshes":[
		{
			"name":"Torus",
			"primitives":[
				{
					"attributes":{
						"POSITION":0,
						"NORMAL":1,
						"TEXCOORD_0":2
					},
					"indices":3,
					"material":0
				}
			]
		},
		{
			"name":"Cylinder",
			"primitives":[
				{
					"attributes":{
						"POSITION":4,
						"NORMAL":5,
						"TEXCOORD_0":6
					},
					"indices":7
				}
			]
		},
		{
			"name":"Cylinder.001",
			"primitives":[
				{
					"attributes":{
						"POSITION":8,
						"NORMAL":9,
						"TEXCOORD_0":10
					},
					"indices":7,
					"material":1
				}
			]
		},
		{
			"name":"Cylinder.002",
			"primitives":[
				{
					"attributes":{
						"POSITION":11,
						"NORMAL":12,
						"TEXCOORD_0":13
					},
					"indices":7,
					"material":2
				}
			]
		}
	],
	"accessors":[
		{
			"bufferView":0,
			"componentType":5126,
			"count":2304,
			"max":[
				1.25,
				0.25,
				1.25
			],
			"min":[
				-1.25,
				-0.25,
				-1.25
			],
			"type":"VEC3"
		},
		{
			"bufferView":1,
			"componentType":5126,
			"count":2304,
			"type":"VEC3"
		},
		{
			"bufferView":2,
			"componentType":5126,
			"count":2304,
			"type":"VEC2"
		},
		{
			"bufferView":3,
			"componentType":5123,
			"count":3456,
			"type":"SCALAR"
		},
		{
			"bufferView":4,
			"componentType":5126,
			"count":192,
			"max":[
				1,
				1,
				1
			],
			"min":[
				-1,
				-1,
				-1
			],
			"type":"VEC3"
		},
		{
			"bufferView":5,
			"componentType":5126,
			"count":192,
			"type":"VEC3"
		},
		{
			"bufferView":6,
			"componentType":5126,
			"count":192,
			"type":"VEC2"
		},
		{
			"bufferView":7,
			"componentType":5123,
			"count":372,
			"type":"SCALAR"
		},
		{
			"bufferView":8,
			"componentType":5126,
			"count":192,
			"max":[
				1,
				1,
				1
			],
			"min":[
				-1,
				-1,
				-1
			],
			"type":"VEC3"
		},
		{
			"bufferView":9,
			"componentType":5126,
			"count":192,
			"type":"VEC3"
		},
		{
			"bufferView":10,
			"componentType":5126,
			"count":192,
			"type":"VEC2"
		},
		{
			"bufferView":11,
			"componentType":5126,
			"count":192,
			"max":[
				1,
				1,
				1
			],
			"min":[
				-1,
				-1,
				-1
			],
			"type":"VEC3"
		},
		{
			"bufferView":12,
			"componentType":5126,
			"count":192,
			"type":"VEC3"
		},
		{
			"bufferView":13,
			"componentType":5126,
			"count":192,
			"type":"VEC2"
		}
	],
	"bufferViews":[
		{
			"buffer":0,
			"byteLength":27648,
			"byteOffset":0,
			"target":34962
		},
		{
			"buffer":0,
			"byteLength":27648,
			"byteOffset":27648,
			"target":34962
		},
		{
			"buffer":0,
			"byteLength":18432,
			"byteOffset":55296,
			"target":34962
		},
		{
			"buffer":0,
			"byteLength":6912,
			"byteOffset":73728,
			"target":34963
		},
		{
			"buffer":0,
			"byteLength":2304,
			"byteOffset":80640,
			"target":34962
		},
		{
			"buffer":0,
			"byteLength":2304,
			"byteOffset":82944,
			"target":34962
		},
		{
			"buffer":0,
			"byteLength":1536,
			"byteOffset":85248,
			"target":34962
		},
		{
			"buffer":0,
			"byteLength":744,
			"byteOffset":86784,
			"target":34963
		},
		{
			"buffer":0,
			"byteLength":2304,
			"byteOffset":87528,
			"target":34962
		},
		{
			"buffer":0,
			"byteLength":2304,
			"byteOffset":89832,
			"target":34962
		},
		{
			"buffer":0,
			"byteLength":1536,
			"byteOffset":92136,
			"target":34962
		},
		{
			"buffer":0,
			"byteLength":2304,
			"byteOffset":93672,
			"target":34962
		},
		{
			"buffer":0,
			"byteLength":2304,
			"byteOffset":95976,
			"target":34962
		},
		{
			"buffer":0,
			"byteLength":1536,
			"byteOffset":98280,
			"target":34962
		}
	],
	"buffers":[
		{
			"byteLength":99816,
			"uri":"chast.bin"
		}
	]
}
